HIERARCHY
ROOT Hips
{
 OFFSET 0.000000 0.000000 0.000000
 CHANNELS 6 Xposition Yposition Zposition Yrotation Xrotation Zrotation
 JOINT Chest
 {
  OFFSET 0.000000 9.585900 0.002600
  CHANNELS 3 Yrotation Xrotation Zrotation
  JOINT Chest2
  {
   OFFSET 0.000000 9.601200 -0.005300
   CHANNELS 3 Yrotation Xrotation Zrotation
   JOINT Chest3
   {
    OFFSET 0.000000 9.561800 0.000000
    CHANNELS 3 Yrotation Xrotation Zrotation
    JOINT Chest4
    {
     OFFSET 0.000000 9.552100 0.000000
     CHANNELS 3 Yrotation Xrotation Zrotation
     JOINT Neck
     {
      OFFSET 0.000000 14.453000 0.000000
      CHANNELS 3 Yrotation Xrotation Zrotation
      JOINT Head
      {
       OFFSET 0.000000 8.936500 -0.011300
       CHANNELS 3 Yrotation Xrotation Zrotation
       End Site
       {
        OFFSET 0.000000 17.073600 -0.006000
       }
      }
     }
     JOINT RightCollar
     {
      OFFSET -2.921100 9.558500 0.000000
      CHANNELS 3 Yrotation Xrotation Zrotation
      JOINT RightShoulder
      {
       OFFSET -13.519700 0.000000 0.000000
       CHANNELS 3 Yrotation Xrotation Zrotation
       JOINT RightElbow
       {
        OFFSET 0.000000 -29.696600 0.000000
        CHANNELS 3 Yrotation Xrotation Zrotation
        JOINT RightWrist
        {
         OFFSET 0.000000 -24.004700 0.000000
         CHANNELS 3 Yrotation Xrotation Zrotation
         End Site
         {
          OFFSET 0.000000 -17.728500 0.000000
         }
        }
       }
      }
     }
     JOINT LeftCollar
     {
      OFFSET 2.921100 9.558500 0.000000
      CHANNELS 3 Yrotation Xrotation Zrotation
      JOINT LeftShoulder
      {
       OFFSET 13.519700 0.000000 0.000000
       CHANNELS 3 Yrotation Xrotation Zrotation
       JOINT LeftElbow
       {
        OFFSET 0.000000 -29.696600 0.000000
        CHANNELS 3 Yrotation Xrotation Zrotation
        JOINT LeftWrist
        {
         OFFSET 0.000000 -24.004700 0.000000
         CHANNELS 3 Yrotation Xrotation Zrotation
         End Site
         {
          OFFSET 0.000000 -17.728500 0.000000
         }
        }
       }
      }
     }
    }
   }
  }
 }
 JOINT RightHip
 {
  OFFSET -7.771700 -0.012900 -0.001300
  CHANNELS 3 Yrotation Xrotation Zrotation
  JOINT RightKnee
  {
   OFFSET 0.000000 -40.869800 0.001200
   CHANNELS 3 Yrotation Xrotation Zrotation
   JOINT RightAnkle
   {
    OFFSET 0.000000 -39.717900 0.002100
    CHANNELS 3 Yrotation Xrotation Zrotation
    JOINT RightToe
    {
     OFFSET 0.000000 -4.965400 11.033500
     CHANNELS 3 Yrotation Xrotation Zrotation
     End Site
     {
      OFFSET 0.000000 -1.423100 5.872300
     }
    }
   }
  }
 }
 JOINT LeftHip
 {
  OFFSET 7.771700 -0.012900 -0.001300
  CHANNELS 3 Yrotation Xrotation Zrotation
  JOINT LeftKnee
  {
   OFFSET 0.000000 -40.869800 0.001200
   CHANNELS 3 Yrotation Xrotation Zrotation
   JOINT LeftAnkle
   {
    OFFSET 0.000000 -39.717900 0.002100
    CHANNELS 3 Yrotation Xrotation Zrotation
    JOINT LeftToe
    {
     OFFSET 0.000000 -4.965400 11.033500
     CHANNELS 3 Yrotation Xrotation Zrotation
     End Site
     {
      OFFSET 0.000000 -1.423100 5.872300
     }
    }
   }
  }
 }
}
MOTION
Frames: 6
Frame Time: 0.008333
-197.994629 58.020826 28.174922 172.406839 -49.650955 -2.748503 5.452439 21.513745 4.051538 2.841688 12.342407 2.070038 3.612054 15.432716 2.542353 2.897633 12.314367 2.184818 5.061020 15.389999 0.735183 9.176303 -7.110789 -0.477477 0.981587 3.855350 1.384630 1.940061 -12.851042 -10.185979 -101.612193 -65.212233 139.008246 6.929337 23.752298 -16.873650 -9.764794 2.762382 -0.490946 18.671151 -24.881361 3.515765 79.150439 -51.595817 -109.501949 17.167188 -14.175416 33.798808 3.918713 -22.731918 -0.852140 -37.892476 73.469275 -39.368078 5.953293 -12.918881 9.240572 0.012355 -0.091651 0.010520 -2.807623 -21.504815 10.827442 53.360540 79.508643 52.509331 4.661252 -15.861091 -16.416852 0.012160 0.042285 0.021473
-197.998467 58.016493 28.169623 172.391539 -49.621588 -2.718745 5.452449 21.485836 4.046657 2.841974 12.338576 2.150057 3.629712 15.407372 2.682490 2.846726 12.330821 2.114547 5.169406 15.360607 0.609458 9.425958 -7.150342 -0.753167 0.950229 3.830448 1.398114 2.050650 -12.825342 -10.302061 -101.376406 -65.128961 138.871014 6.830392 23.635414 -16.990602 -9.818614 2.696312 -0.481055 18.831814 -25.163618 3.529456 80.038753 -52.105192 -109.664601 17.107630 -14.241712 33.778863 3.944865 -22.763545 -0.880982 -37.920890 73.476176 -39.387253 5.952112 -12.928818 9.238074 0.015235 -0.086052 0.012960 -2.754285 -21.542615 10.802120 53.330715 79.517469 52.507848 4.655761 -15.862601 -16.415416 0.015404 0.040163 0.023727
-198.002391 58.014199 28.162169 172.387929 -49.607302 -2.699098 5.440870 21.477652 4.091210 2.832649 12.339372 2.177763 3.627956 15.396794 2.751452 2.826894 12.332054 2.109969 5.267002 15.328477 0.484254 9.655472 -7.194927 -1.024107 0.917483 3.804621 1.408087 2.168729 -12.808654 -10.418508 -101.135853 -65.044649 138.725765 6.750627 23.514396 -17.086712 -9.870397 2.633562 -0.458246 18.944614 -25.412146 3.583736 80.932337 -52.579734 -109.931563 17.047886 -14.304959 33.694765 3.963329 -22.779074 -0.905444 -37.963594 73.494189 -39.429380 5.952150 -12.950173 9.244762 0.007142 -0.083515 0.011883 -2.704579 -21.565938 10.777693 53.338139 79.529297 52.542037 4.646602 -15.871497 -16.408087 0.016108 0.036199 0.025529
-198.005065 58.012335 28.154388 172.381554 -49.595005 -2.687518 5.434067 21.474965 4.146979 2.823906 12.336626 2.156203 3.629933 15.394272 2.836365 2.819242 12.328327 2.137779 5.352227 15.295548 0.360402 9.861593 -7.241202 -1.288246 0.885342 3.776805 1.413125 2.283900 -12.801600 -10.533654 -100.888730 -64.960535 138.577211 6.680690 23.393795 -17.171039 -9.918527 2.575377 -0.420618 19.007688 -25.629814 3.672359 81.817858 -53.023755 -110.263068 16.989529 -14.366668 33.554585 3.992580 -22.792755 -0.923762 -37.999607 73.505659 -39.450648 5.955974 -12.960920 9.249025 0.000842 -0.083228 0.010290 -2.660575 -21.587142 10.769833 53.361700 79.545630 52.583030 4.636581 -15.882976 -16.394026 0.010843 0.032313 0.024926
-198.006970 58.010270 28.146898 172.378757 -49.579152 -2.686031 5.422662 21.476522 4.203899 2.813744 12.338861 2.210627 3.615019 15.390387 2.847235 2.810637 12.326016 2.166006 5.424474 15.263509 0.237306 10.043322 -7.286044 -1.546384 0.855771 3.744789 1.412711 2.390894 -12.798736 -10.647175 -100.643195 -64.881853 138.436087 6.610241 23.276992 -17.254458 -9.961987 2.519542 -0.372891 19.041528 -25.814387 3.782826 82.674037 -53.436744 -110.637757 16.933041 -14.422142 33.365752 4.013984 -22.809730 -0.930859 -38.032591 73.517776 -39.475737 5.955849 -12.973268 9.259114 0.005798 -0.082873 0.007936 -2.583933 -21.618761 10.761078 53.282997 79.565274 52.567771 4.622576 -15.884647 -16.391350 0.014810 0.026413 0.028098
-198.012648 58.007993 28.138996 172.373982 -49.560239 -2.662378 5.406709 21.478255 4.245852 2.794798 12.345421 2.260718 3.599553 15.386687 2.857838 2.802000 12.324461 2.195393 5.422106 15.254303 0.087700 10.257037 -7.345137 -1.794086 0.826219 3.709896 1.406612 2.495010 -12.796274 -10.760477 -100.405548 -64.811216 138.307016 6.530662 23.163665 -17.349771 -9.999001 2.460871 -0.320961 19.050856 -25.965900 3.910909 83.490225 -53.820161 -111.043504 16.880088 -14.464619 33.148838 4.043507 -22.826599 -0.962530 -38.050289 73.531077 -39.493288 5.959710 -12.990764 9.274194 -0.001491 -0.079669 0.005022 -2.545905 -21.643850 10.739998 53.328965 79.576948 52.617910 4.616312 -15.899448 -16.373827 0.014246 0.032106 0.021050
